HIERARCHY
ROOT Hips
{
  OFFSET 2.26061 22.2878 23.7974
  CHANNELS 6 Xposition Yposition Zposition Zrotation Xrotation Yrotation
  JOINT LeftUpLeg
  {
    OFFSET 8.64259 1.95398 -2.38835
    CHANNELS 3 Zrotation Xrotation Yrotation
    JOINT LeftLeg
    {
      OFFSET 43.7702 0 0
      CHANNELS 3 Zrotation Xrotation Yrotation
      JOINT LeftFoot
      {
        OFFSET 40.6238 0 0
        CHANNELS 3 Zrotation Xrotation Yrotation
        JOINT LeftToeBase
        {
          OFFSET 12.7242 0 0
          CHANNELS 3 Zrotation Xrotation Yrotation
          End Site
          {
            OFFSET 0 0 0
          }
        }
      }
    }
  }
  JOINT RightUpLeg
  {
    OFFSET -8.2249 1.95398 -2.59336
    CHANNELS 3 Zrotation Xrotation Yrotation
    JOINT RightLeg
    {
      OFFSET 43.5653 0 0
      CHANNELS 3 Zrotation Xrotation Yrotation
      JOINT RightFoot
      {
        OFFSET 40.6238 0 0
        CHANNELS 3 Zrotation Xrotation Yrotation
        JOINT RightToeBase
        {
          OFFSET 12.7242 0 0
          CHANNELS 3 Zrotation Xrotation Yrotation
          End Site
          {
            OFFSET 0 0 0
          }
        }
      }
    }
  }
  JOINT Spine
  {
    OFFSET 0.165834 0.87714 6.61349
    CHANNELS 3 Zrotation Xrotation Yrotation
    JOINT Spine1
    {
      OFFSET 7.38963 1.71661e-005 0
      CHANNELS 3 Zrotation Xrotation Yrotation
      JOINT Spine2
      {
        OFFSET 11.9445 1.14441e-005 0
        CHANNELS 3 Zrotation Xrotation Yrotation
        JOINT Spine3
        {
          OFFSET 14.7254 4.19617e-005 0
          CHANNELS 3 Zrotation Xrotation Yrotation
          JOINT Spine4
          {
            OFFSET 10.9679 0 0
            CHANNELS 3 Zrotation Xrotation Yrotation
            JOINT RightShoulder
            {
              OFFSET 2.46616 -1.6653 3.69651
              CHANNELS 3 Zrotation Xrotation Yrotation
              JOINT RightArm
              {
                OFFSET 13.0012 0 0
                CHANNELS 3 Zrotation Xrotation Yrotation
                JOINT RightForeArm
                {
                  OFFSET 28.7848 1.52588e-005 0
                  CHANNELS 3 Zrotation Xrotation Yrotation
                  JOINT RightHand
                  {
                    OFFSET 26.5688 1.52588e-005 0
                    CHANNELS 3 Zrotation Xrotation Yrotation
                    End Site
                    {
                      OFFSET 0 0 0
                    }
                  }
                }
              }
            }
            JOINT LeftShoulder
            {
              OFFSET 2.38034 -1.29275 -3.7523
              CHANNELS 3 Zrotation Xrotation Yrotation
              JOINT LeftArm
              {
                OFFSET 16.3182 6.10351e-005 0
                CHANNELS 3 Zrotation Xrotation Yrotation
                JOINT LeftForeArm
                {
                  OFFSET 27.0901 0 0
                  CHANNELS 3 Zrotation Xrotation Yrotation
                  JOINT LeftHand
                  {
                    OFFSET 24.5451 1.52588e-005 0
                    CHANNELS 3 Zrotation Xrotation Yrotation
                    End Site
                    {
                      OFFSET 0 0 0
                    }
                  }
                }
              }
            }
            JOINT Neck
            {
              OFFSET 5.0226 -0.0266342 0
              CHANNELS 3 Zrotation Xrotation Yrotation
              JOINT Head
              {
                OFFSET 6.69363 2.86102e-005 0
                CHANNELS 3 Zrotation Xrotation Yrotation
                End Site
                {
                  OFFSET 0 0 0
                }
              }
            }
          }
        }
      }
    }
  }
}
MOTION
Frames:	6
Frame Time:	0.0416667
-6.78502 94.9374 99.8512 6.30219 -87.1918 4.56551 -173.203 3.32061 85.9833 -22.5219 15.1737 -1.00656 69.3917 8.63275 5.20439 35.0629 4.92568 1.59427 176.371 25.5826 90.7274 -20.9737 1.95701 -1.3565 62.0318 -2.51402 -1.45066 40.2957 0.306584 -7.54146 -0.741461 7.42419 -89.8158 12.0294 -1.38713 0.518956 0.359017 -1.36293 0.579507 -22.1821 -1.47896 0.0779942 -2.16942 -1.47895 0.077982 92.8412 -55.3968 -95.5345 21.4407 -7.50699 12.4046 -8.79717 -29.1257 -42.5801 -3.93462 -0.775203 4.9052 -103.818 -50.5672 58.7671 -10.3294 13.6441 -0.109657 5.80947 7.80419 -45.9893 15.7513 1.26252 4.09379 3.47935 1.42063 -0.874224 3.70161 1.72191 2.90946 
-7.09984 93.8161 106.316 37.4102 -86.5043 35.2907 -172.658 -0.134808 86.6554 -24.0175 18.2541 -0.835817 69.883 9.44994 6.86355 38.2501 7.47437 1.17653 176.727 24.9797 90.2278 -6.52913 -1.69071 -2.17633 62.4785 -1.91949 -1.05909 47.0327 0.101873 -8.50599 -1.01382 7.48095 -89.8081 11.9184 -1.92542 0.590183 0.248664 -1.89758 0.674373 -22.298 -2.01376 -0.0160163 -2.2853 -2.01375 -0.0160019 93.5066 -56.0292 -94.4766 21.0759 -7.17303 13.6481 -8.75407 -30.0662 -41.7887 -3.2453 -0.770841 5.55621 -103.718 -50.0725 58.7024 -8.33651 12.3947 -1.72181 7.01528 7.73409 -48.0916 16.9369 1.1528 2.92898 4.54043 1.26527 -1.96317 3.53428 1.81296 4.05794 
-7.52539 92.702 113.176 59.9264 -84.4071 57.7527 -172.853 -2.41318 87.8817 -27.4698 22.44 0.502124 67.3096 7.74078 7.10722 45.2161 13.0098 1.18992 176.276 26.0369 89.5877 -4.55773 -2.43436 -1.99241 63.8717 -2.09841 -1.13245 50.233 -0.0268853 -8.91295 -1.32796 7.4729 -89.8842 11.9369 -2.58584 0.509513 0.268415 -2.56092 0.622888 -22.2874 -2.61935 -0.291741 -2.27471 -2.61935 -0.291745 94.0606 -56.7863 -93.5746 20.2484 -6.43121 14.8641 -9.32319 -30.1924 -41.5017 -1.81251 -0.699893 5.97681 -104.686 -50.5646 57.5408 -7.11413 11.5966 -1.95119 6.24416 6.32788 -49.3285 17.8501 1.34736 3.68323 4.88902 1.02181 -2.0506 3.61797 1.60642 4.22052 
-8.04484 91.8265 120.42 77.9693 -84.2553 77.6795 -172.691 -4.23533 91.1091 -33.9827 24.9623 2.64524 63.4668 4.69021 5.62151 50.6309 17.5098 2.36244 176.797 25.9346 91.1502 -12.2306 -0.983633 -1.69943 59.2084 -1.07126 -0.512239 47.2056 0.0758007 -8.88077 -1.38151 7.61058 -90.1522 11.6556 -2.81929 -0.00977782 -0.0123349 -2.81699 0.114408 -22.5704 -2.68591 -0.857263 -2.55775 -2.68591 -0.857266 93.9333 -57.0141 -93.7243 19.7758 -5.74811 15.4227 -8.26914 -30.5785 -39.4191 -0.443918 -0.61302 6.1294 -105.286 -51.2292 56.9833 -7.81867 10.6194 -1.19611 7.16152 7.08039 -48.8259 17.2455 1.36956 4.05815 5.28025 1.17213 -1.48924 3.0114 1.65673 4.34055 
-8.15581 91.2508 127.965 85.3159 -85.9447 88.2143 -172.372 -2.98701 94.9706 -42.2748 22.5928 3.46248 51.784 -4.48246 -2.82909 53.8975 21.6371 7.88729 177.032 28.2794 94.5239 -26.0704 -0.425489 -0.695377 58.7463 -0.680069 -0.284134 40.0504 0.32302 -6.67287 -1.21878 7.66922 -90.5732 11.5283 -2.69275 -0.865957 -0.140054 -2.72826 -0.746528 -22.6906 -2.30797 -1.63551 -2.6779 -2.30798 -1.63552 92.8019 -55.9196 -95.5073 20.0538 -4.81813 14.3877 -7.8579 -31.4844 -37.382 0.443048 -0.570743 6.95802 -106.304 -52.5404 56.1369 -9.68643 10.1915 0.978149 5.86925 6.56981 -46.4531 18.3231 1.49292 4.2801 4.96832 1.88292 -0.186388 2.44043 2.1155 4.10701 
-8.86843 90.8963 134.875 103.531 -86.972 106.597 -173.176 2.73568 95.6471 -54.0924 21.6066 3.01594 40.0308 -11.7499 -6.54643 40.4734 10.3864 16.7845 176.961 27.5593 95.9675 -35.5547 -0.627497 -0.843291 65.5522 -2.51656 -1.36344 33.6852 0.321017 -3.52616 -1.05287 7.67106 -90.5389 11.5242 -2.34664 -0.833267 -0.144848 -2.38104 -0.729138 -22.6909 -1.98773 -1.50019 -2.67823 -1.98771 -1.50019 92.4929 -54.7953 -96.1397 21.6765 -4.8778 13.1874 -8.00578 -30.1091 -37.9995 0.579852 -0.542008 7.29253 -106.944 -53.2901 55.5852 -11.0815 11.9601 2.94174 3.87083 6.41925 -42.8174 17.0156 1.37299 4.18181 4.50623 1.84761 0.836082 1.75653 1.83765 2.84179 
